<?xml version="1.0" encoding="UTF-8" standalone="no"?>
<svg
   xmlns:dc="http://purl.org/dc/elements/1.1/"
   xmlns:cc="http://creativecommons.org/ns#"
   xmlns:rdf="http://www.w3.org/1999/02/22-rdf-syntax-ns#"
   xmlns:svg="http://www.w3.org/2000/svg"
   xmlns="http://www.w3.org/2000/svg"
   height="125.99998"
   width="182.39977"
   xml:space="preserve"
   viewBox="0 0 182.39977 125.99998"
   version="1.1"
   id="Layer_1"><metadata
     id="metadata21"><rdf:RDF><cc:Work
         rdf:about=""><dc:format>image/svg+xml</dc:format><dc:type
           rdf:resource="http://purl.org/dc/dcmitype/StillImage" /><dc:title></dc:title></cc:Work></rdf:RDF></metadata><defs
     id="defs19" /><style
     id="style2"
     type="text/css">
	.st0{fill:#C439E5;}
	.st1{fill:#46E6F2;}
	.st2{fill:none;stroke:#231F20;stroke-width:3;stroke-linecap:round;stroke-linejoin:round;stroke-miterlimit:10;}
	.st3{fill:none;stroke:#FFFFFF;stroke-width:3;stroke-linecap:round;stroke-linejoin:round;stroke-miterlimit:10;}
</style><g
     transform="translate(-37.400232,-70.000013)"
     id="XMLID_2_"><polygon
       style="fill:#c439e5"
       points="219.8,112.3 130.7,150.3 41.6,112.3 130.7,74.2 "
       id="XMLID_13_"
       class="st0" /><path
       style="fill:#c439e5"
       id="XMLID_12_"
       d="M 130.7,150.3 88.2,132.2 v 32.5 c 0,2.2 1.4,4.2 3.6,4.9 32.7,10.5 66.7,2.9 77.7,-0.1 2.2,-0.6 3.7,-2.6 3.7,-4.9 v -32.4 z"
       class="st0" /><circle
       style="fill:#46e6f2"
       r="6.1999998"
       id="XMLID_11_"
       cy="180.7"
       cx="80.199997"
       class="st1" /><path
       style="fill:#46e6f2"
       id="XMLID_10_"
       d="m 82.9,186.2 c -0.8,0.4 -1.7,0.7 -2.7,0.7 -1,0 -1.9,-0.2 -2.7,-0.7 l -5.7,9.8 h 16.7 z"
       class="st1" /><polygon
       style="fill:none;stroke:#231f20;stroke-width:3;stroke-linecap:round;stroke-linejoin:round;stroke-miterlimit:10"
       points="217.1,109.6 128,147.6 38.9,109.6 128,71.5 "
       id="XMLID_9_"
       class="st2" /><path
       style="fill:none;stroke:#231f20;stroke-width:3;stroke-linecap:round;stroke-linejoin:round;stroke-miterlimit:10"
       id="XMLID_8_"
       d="M 128,147.6 85.5,129.5 V 162 c 0,2.2 1.4,4.2 3.6,4.9 32.7,10.5 66.7,2.9 77.7,-0.1 2.2,-0.6 3.7,-2.6 3.7,-4.9 v -32.4 z"
       class="st2" /><polyline
       style="fill:none;stroke:#231f20;stroke-width:3;stroke-linecap:round;stroke-linejoin:round;stroke-miterlimit:10"
       points="126.7,105.3 77.5,126.2 77.5,171.8  "
       id="XMLID_7_"
       class="st2" /><circle
       style="fill:none;stroke:#231f20;stroke-width:3;stroke-linecap:round;stroke-linejoin:round;stroke-miterlimit:10"
       r="6.1999998"
       id="XMLID_6_"
       cy="178"
       cx="77.5"
       class="st2" /><path
       style="fill:none;stroke:#231f20;stroke-width:3;stroke-linecap:round;stroke-linejoin:round;stroke-miterlimit:10"
       id="XMLID_5_"
       d="m 80.2,183.5 c -0.8,0.4 -1.7,0.7 -2.7,0.7 -1,0 -1.9,-0.2 -2.7,-0.7 l -5.7,9.8 h 16.7 z"
       class="st2" /><line
       style="fill:none;stroke:#ffffff;stroke-width:3;stroke-linecap:round;stroke-linejoin:round;stroke-miterlimit:10"
       y2="102.6"
       y1="93.800003"
       x2="175.5"
       x1="155.3"
       id="XMLID_4_"
       class="st3" /><line
       style="fill:none;stroke:#ffffff;stroke-width:3;stroke-linecap:round;stroke-linejoin:round;stroke-miterlimit:10"
       y2="109.3"
       y1="106.5"
       x2="188.2"
       x1="181.89999"
       id="XMLID_3_"
       class="st3" /></g></svg>