<?xml version="1.0" encoding="UTF-8" standalone="no"?>
<svg xmlns="http://www.w3.org/2000/svg">
  
  <symbol id="app-logo" viewBox="0 0 182.4 126">
    <style>.st0{fill:#c439e5}.st1{fill:#46e6f2}.st2,.st3{fill:none;stroke:#231f20;stroke-width:3;stroke-linecap:round;stroke-linejoin:round;stroke-miterlimit:10}.st3{stroke:#fff}</style><g transform="translate(-37.4 -70)" id="XMLID_2_"><path id="XMLID_13_" class="st0" fill="#c439e5" d="M219.8 112.3l-89.1 38-89.1-38 89.1-38.1z"/><path id="XMLID_12_" d="M130.7 150.3l-42.5-18.1v32.5c0 2.2 1.4 4.2 3.6 4.9 32.7 10.5 66.7 2.9 77.7-.1 2.2-.6 3.7-2.6 3.7-4.9v-32.4z" class="st0" fill="#c439e5"/><circle r="6.2" id="XMLID_11_" cy="180.7" cx="80.2" class="st1" fill="#46e6f2"/><path id="XMLID_10_" d="M82.9 186.2c-.8.4-1.7.7-2.7.7-1 0-1.9-.2-2.7-.7l-5.7 9.8h16.7z" class="st1" fill="#46e6f2"/><path id="XMLID_9_" class="st2" fill="none" stroke="#231f20" stroke-width="3" stroke-linecap="round" stroke-linejoin="round" stroke-miterlimit="10" d="M217.1 109.6l-89.1 38-89.1-38L128 71.5z"/><path id="XMLID_8_" d="M128 147.6l-42.5-18.1V162c0 2.2 1.4 4.2 3.6 4.9 32.7 10.5 66.7 2.9 77.7-.1 2.2-.6 3.7-2.6 3.7-4.9v-32.4z" class="st2" fill="none" stroke="#231f20" stroke-width="3" stroke-linecap="round" stroke-linejoin="round" stroke-miterlimit="10"/><path id="XMLID_7_" class="st2" fill="none" stroke="#231f20" stroke-width="3" stroke-linecap="round" stroke-linejoin="round" stroke-miterlimit="10" d="M126.7 105.3l-49.2 20.9v45.6"/><circle r="6.2" id="XMLID_6_" cy="178" cx="77.5" class="st2" fill="none" stroke="#231f20" stroke-width="3" stroke-linecap="round" stroke-linejoin="round" stroke-miterlimit="10"/><path id="XMLID_5_" d="M80.2 183.5c-.8.4-1.7.7-2.7.7-1 0-1.9-.2-2.7-.7l-5.7 9.8h16.7z" class="st2" fill="none" stroke="#231f20" stroke-width="3" stroke-linecap="round" stroke-linejoin="round" stroke-miterlimit="10"/><path id="XMLID_4_" class="st3" fill="none" stroke="#fff" stroke-width="3" stroke-linecap="round" stroke-linejoin="round" stroke-miterlimit="10" d="M155.3 93.8l20.2 8.8"/><path id="XMLID_3_" class="st3" fill="none" stroke="#fff" stroke-width="3" stroke-linecap="round" stroke-linejoin="round" stroke-miterlimit="10" d="M181.9 106.5l6.3 2.8"/></g>
  </symbol>
  <symbol id="icon-add" viewBox="0 0 512 512">
    <path xmlns="http://www.w3.org/2000/svg" d="M256 8C119 8 8 119 8 256s111 248 248 248 248-111 248-248S393 8 256 8zm144 276c0 6.6-5.4 12-12 12h-92v92c0 6.6-5.4 12-12 12h-56c-6.6 0-12-5.4-12-12v-92h-92c-6.6 0-12-5.4-12-12v-56c0-6.6 5.4-12 12-12h92v-92c0-6.6 5.4-12 12-12h56c6.6 0 12 5.4 12 12v92h92c6.6 0 12 5.4 12 12v56z"/>
  </symbol>
  <symbol id="icon-edit" viewBox="0 0 576 512">
    <path d="M402.3 344.9l32-32c5-5 13.7-1.5 13.7 5.7V464c0 26.5-21.5 48-48 48H48c-26.5 0-48-21.5-48-48V112c0-26.5 21.5-48 48-48h273.5c7.1 0 10.7 8.6 5.7 13.7l-32 32c-1.5 1.5-3.5 2.3-5.7 2.3H48v352h352V350.5c0-2.1.8-4.1 2.3-5.6zm156.6-201.8L296.3 405.7l-90.4 10c-26.2 2.9-48.5-19.2-45.6-45.6l10-90.4L432.9 17.1c22.9-22.9 59.9-22.9 82.7 0l43.2 43.2c22.9 22.9 22.9 60 .1 82.8zM460.1 174L402 115.9 216.2 301.8l-7.3 65.3 65.3-7.3L460.1 174zm64.8-79.7l-43.2-43.2c-4.1-4.1-10.8-4.1-14.8 0L436 82l58.1 58.1 30.9-30.9c4-4.2 4-10.8-.1-14.9z"/>
  </symbol>
  <symbol id="icon-delete" viewBox="0 0 448 512">
    <path d="M192 188v216c0 6.627-5.373 12-12 12h-24c-6.627 0-12-5.373-12-12V188c0-6.627 5.373-12 12-12h24c6.627 0 12 5.373 12 12zm100-12h-24c-6.627 0-12 5.373-12 12v216c0 6.627 5.373 12 12 12h24c6.627 0 12-5.373 12-12V188c0-6.627-5.373-12-12-12zm132-96c13.255 0 24 10.745 24 24v12c0 6.627-5.373 12-12 12h-20v336c0 26.51-21.49 48-48 48H80c-26.51 0-48-21.49-48-48V128H12c-6.627 0-12-5.373-12-12v-12c0-13.255 10.745-24 24-24h74.411l34.018-56.696A48 48 0 0 1 173.589 0h100.823a48 48 0 0 1 41.16 23.304L349.589 80H424zm-269.611 0h139.223L276.16 50.913A6 6 0 0 0 271.015 48h-94.028a6 6 0 0 0-5.145 2.913L154.389 80zM368 128H80v330a6 6 0 0 0 6 6h276a6 6 0 0 0 6-6V128z"/>
  </symbol>
  <symbol id="icon-star" viewBox="0 0 576 512">
    <path d="M259.3 17.8L194 150.2 47.9 171.5c-26.2 3.8-36.7 36.1-17.7 54.6l105.7 103-25 145.5c-4.5 26.3 23.2 46 46.4 33.7L288 439.6l130.7 68.7c23.2 12.2 50.9-7.4 46.4-33.7l-25-145.5 105.7-103c19-18.5 8.5-50.8-17.7-54.6L382 150.2 316.7 17.8c-11.7-23.6-45.6-23.9-57.4 0z"></path>
  </symbol>
</svg>
