<?xml version="1.0" encoding="UTF-8" standalone="no"?>
<svg xmlns="http://www.w3.org/2000/svg">
  <symbol id="icon-add" viewBox="0 0 512 512">
    <path xmlns="http://www.w3.org/2000/svg" d="M256 8C119 8 8 119 8 256s111 248 248 248 248-111 248-248S393 8 256 8zm144 276c0 6.6-5.4 12-12 12h-92v92c0 6.6-5.4 12-12 12h-56c-6.6 0-12-5.4-12-12v-92h-92c-6.6 0-12-5.4-12-12v-56c0-6.6 5.4-12 12-12h92v-92c0-6.6 5.4-12 12-12h56c6.6 0 12 5.4 12 12v92h92c6.6 0 12 5.4 12 12v56z"/>
  </symbol>
  <symbol id="icon-edit" viewBox="0 0 576 512">
    <path d="M402.3 344.9l32-32c5-5 13.7-1.5 13.7 5.7V464c0 26.5-21.5 48-48 48H48c-26.5 0-48-21.5-48-48V112c0-26.5 21.5-48 48-48h273.5c7.1 0 10.7 8.6 5.7 13.7l-32 32c-1.5 1.5-3.5 2.3-5.7 2.3H48v352h352V350.5c0-2.1.8-4.1 2.3-5.6zm156.6-201.8L296.3 405.7l-90.4 10c-26.2 2.9-48.5-19.2-45.6-45.6l10-90.4L432.9 17.1c22.9-22.9 59.9-22.9 82.7 0l43.2 43.2c22.9 22.9 22.9 60 .1 82.8zM460.1 174L402 115.9 216.2 301.8l-7.3 65.3 65.3-7.3L460.1 174zm64.8-79.7l-43.2-43.2c-4.1-4.1-10.8-4.1-14.8 0L436 82l58.1 58.1 30.9-30.9c4-4.2 4-10.8-.1-14.9z"/>
  </symbol>
  <symbol id="icon-delete" viewBox="0 0 448 512">
    <path d="M192 188v216c0 6.627-5.373 12-12 12h-24c-6.627 0-12-5.373-12-12V188c0-6.627 5.373-12 12-12h24c6.627 0 12 5.373 12 12zm100-12h-24c-6.627 0-12 5.373-12 12v216c0 6.627 5.373 12 12 12h24c6.627 0 12-5.373 12-12V188c0-6.627-5.373-12-12-12zm132-96c13.255 0 24 10.745 24 24v12c0 6.627-5.373 12-12 12h-20v336c0 26.51-21.49 48-48 48H80c-26.51 0-48-21.49-48-48V128H12c-6.627 0-12-5.373-12-12v-12c0-13.255 10.745-24 24-24h74.411l34.018-56.696A48 48 0 0 1 173.589 0h100.823a48 48 0 0 1 41.16 23.304L349.589 80H424zm-269.611 0h139.223L276.16 50.913A6 6 0 0 0 271.015 48h-94.028a6 6 0 0 0-5.145 2.913L154.389 80zM368 128H80v330a6 6 0 0 0 6 6h276a6 6 0 0 0 6-6V128z"/>
  </symbol>      
</svg>
